<svg xmlns="http://www.w3.org/2000/svg" width="31" height="25.97" viewBox="0 0 31 25.97">
  <metadata><?xpacket begin="﻿" id="W5M0MpCehiHzreSzNTczkc9d"?>
<x:xmpmeta xmlns:x="adobe:ns:meta/" x:xmptk="Adobe XMP Core 5.6-c142 79.160924, 2017/07/13-01:06:39        ">
   <rdf:RDF xmlns:rdf="http://www.w3.org/1999/02/22-rdf-syntax-ns#">
      <rdf:Description rdf:about=""/>
   </rdf:RDF>
</x:xmpmeta>
                                                                                                    
                                                                                                    
                                                                                                    
                                                                                                    
                                                                                                    
                                                                                                    
                                                                                                    
                                                                                                    
                                                                                                    
                                                                                                    
                                                                                                    
                                                                                                    
                                                                                                    
                                                                                                    
                                                                                                    
                                                                                                    
                                                                                                    
                                                                                                    
                                                                                                    
                                                                                                    
                           
<?xpacket end="w"?></metadata>
<defs>
    <style>
      .cls-1 {
        fill: #e74c3c;
        fill-rule: evenodd;
      }
    </style>
  </defs>
  <path id="Forma_1" data-name="Forma 1" class="cls-1" d="M1041.4,2559a3.354,3.354,0,0,0-1.46.31l-15.17,7.32a1.028,1.028,0,0,0,0,1.99l8.53,4.12a0.522,0.522,0,0,0,.21.04l8.53-.15a0.374,0.374,0,0,0,.18-0.05l12.01-5.78a1.192,1.192,0,0,0,.77-1,1.18,1.18,0,0,0-.77-1l-11.37-5.49A3.417,3.417,0,0,0,1041.4,2559Zm0,0.9a2.545,2.545,0,0,1,1.06.19l11.38,5.49a0.393,0.393,0,0,1,.27.22,0.466,0.466,0,0,1-.27.22l-11.81,5.69-4.23-2.04a0.493,0.493,0,0,0-.39,0l-4.23,2.04-8.01-3.86a0.421,0.421,0,0,1-.28-0.23,0.474,0.474,0,0,1,.28-0.22l15.16-7.31A2.6,2.6,0,0,1,1041.4,2559.9Zm1.25,2.02a0.213,0.213,0,0,0-.21.22,0.2,0.2,0,0,0,.12.19l6.32,3.05a0.218,0.218,0,0,0,.3-0.09,0.212,0.212,0,0,0-.09-0.29,0.01,0.01,0,0,1-.01-0.01l-6.32-3.04A0.228,0.228,0,0,0,1042.65,2561.92Zm-3.16,1.53a0.207,0.207,0,0,0-.21.22,0.224,0.224,0,0,0,.12.19l6.32,3.04a0.218,0.218,0,0,0,.3-0.09,0.209,0.209,0,0,0-.09-0.29h-0.01l-6.32-3.05A0.139,0.139,0,0,0,1039.49,2563.45Zm-3.16,1.52a0.207,0.207,0,0,0-.21.22,0.212,0.212,0,0,0,.12.19l6.32,3.05a0.23,0.23,0,0,0,.3-0.1,0.216,0.216,0,0,0-.1-0.29l-6.32-3.05A0.359,0.359,0,0,0,1036.33,2564.97Zm-5.46.15a0.193,0.193,0,0,0-.1.03l-4.73,2.28a0.22,0.22,0,0,0-.11.29,0.266,0.266,0,0,0,.11.1l2.21,1.07a0.24,0.24,0,0,0,.3-0.09,0.23,0.23,0,0,0-.1-0.3h-0.01l-1.81-.88,4.34-2.09a0.2,0.2,0,0,0,.1-0.28A0.209,0.209,0,0,0,1030.87,2565.12Zm6.74,5.43,2.58,1.25-5.37.09Zm16.77,0.05a0.5,0.5,0,0,0-.24.06l-16.72,7.94-12.63-6.2a0.528,0.528,0,0,0-.72.22,0.512,0.512,0,0,0,.23.71l0.01,0.01,12.87,6.32a0.552,0.552,0,0,0,.47,0l16.96-8.06a0.523,0.523,0,0,0,.26-0.7A0.549,0.549,0,0,0,1054.38,2570.6Zm-11.65,4.21a0.238,0.238,0,0,0-.12.03l-5.26,2.57-4.72-2.36a0.269,0.269,0,0,0-.36.12,0.26,0.26,0,0,0,.12.35l4.84,2.42a0.255,0.255,0,0,0,.24,0l5.38-2.63a0.255,0.255,0,0,0,.12-0.35A0.267,0.267,0,0,0,1042.73,2574.81Zm11.65,1.04a0.5,0.5,0,0,0-.24.06l-16.72,7.94-12.63-6.2a0.548,0.548,0,0,0-.73.21,0.526,0.526,0,0,0,.23.72,0.031,0.031,0,0,1,.02.01l12.87,6.32a0.552,0.552,0,0,0,.47,0l16.96-8.06a0.523,0.523,0,0,0,.26-0.7A0.549,0.549,0,0,0,1054.38,2575.85Zm-11.65,4.21a0.238,0.238,0,0,0-.12.03l-5.26,2.57-4.72-2.36a0.266,0.266,0,0,0-.25.47h0.01l4.84,2.42a0.255,0.255,0,0,0,.24,0l5.38-2.63a0.255,0.255,0,0,0,.12-0.35A0.267,0.267,0,0,0,1042.73,2580.06Z" transform="translate(-1024 -2559)"/>
</svg>
