<svg xmlns="http://www.w3.org/2000/svg" width="31" height="25.97"><path data-name="Forma 1" d="M17.4 0a3.354 3.354 0 0 0-1.46.31L.77 7.63a1.028 1.028 0 0 0 0 1.99l8.53 4.12a.522.522 0 0 0 .21.04l8.53-.15a.374.374 0 0 0 .18-.05L30.23 7.8a1.192 1.192 0 0 0 .77-1 1.18 1.18 0 0 0-.77-1L18.86.31A3.417 3.417 0 0 0 17.4 0zm0 .9a2.545 2.545 0 0 1 1.06.19l11.38 5.49a.393.393 0 0 1 .27.22.466.466 0 0 1-.27.22l-11.81 5.69-4.23-2.04a.493.493 0 0 0-.39 0l-4.23 2.04-8.01-3.86a.421.421 0 0 1-.28-.23.474.474 0 0 1 .28-.22l15.16-7.31A2.6 2.6 0 0 1 17.4.9zm1.25 2.02a.213.213 0 0 0-.21.22.2.2 0 0 0 .12.19l6.32 3.05a.218.218 0 0 0 .3-.09.212.212 0 0 0-.09-.29.01.01 0 0 1-.01-.01l-6.32-3.04a.228.228 0 0 0-.11-.03zm-3.16 1.53a.207.207 0 0 0-.21.22.224.224 0 0 0 .12.19l6.32 3.04a.218.218 0 0 0 .3-.09.209.209 0 0 0-.09-.29h-.01L15.6 4.47a.139.139 0 0 0-.11-.02zm-3.16 1.52a.207.207 0 0 0-.21.22.212.212 0 0 0 .12.19l6.32 3.05a.23.23 0 0 0 .3-.1.216.216 0 0 0-.1-.29l-6.32-3.05a.359.359 0 0 0-.11-.02zm-5.46.15a.193.193 0 0 0-.1.03L2.04 8.43a.22.22 0 0 0-.11.29.266.266 0 0 0 .11.1l2.21 1.07a.24.24 0 0 0 .3-.09.23.23 0 0 0-.1-.3h-.01l-1.81-.88 4.34-2.09a.2.2 0 0 0 .1-.28.209.209 0 0 0-.2-.13zm6.74 5.43l2.58 1.25-5.37.09zm16.77.05a.5.5 0 0 0-.24.06L13.42 19.6.79 13.4a.528.528 0 0 0-.72.22.512.512 0 0 0 .23.71l.01.01 12.87 6.32a.552.552 0 0 0 .47 0l16.96-8.06a.523.523 0 0 0 .26-.7.549.549 0 0 0-.49-.3zm-11.65 4.21a.238.238 0 0 0-.12.03l-5.26 2.57-4.72-2.36a.269.269 0 0 0-.36.12.26.26 0 0 0 .12.35l4.84 2.42a.255.255 0 0 0 .24 0l5.38-2.63a.255.255 0 0 0 .12-.35.267.267 0 0 0-.24-.15zm11.65 1.04a.5.5 0 0 0-.24.06l-16.72 7.94-12.63-6.2a.548.548 0 0 0-.73.21.526.526 0 0 0 .23.72.031.031 0 0 1 .02.01l12.87 6.32a.552.552 0 0 0 .47 0l16.96-8.06a.523.523 0 0 0 .26-.7.549.549 0 0 0-.49-.3zm-11.65 4.21a.238.238 0 0 0-.12.03l-5.26 2.57-4.72-2.36a.266.266 0 0 0-.25.47h.01l4.84 2.42a.255.255 0 0 0 .24 0l5.38-2.63a.255.255 0 0 0 .12-.35.267.267 0 0 0-.24-.15z" fill="#e74c3c" fill-rule="evenodd"/></svg>