<svg xmlns="http://www.w3.org/2000/svg" width="25" height="22" viewBox="0 0 25 22">
  <metadata><?xpacket begin="﻿" id="W5M0MpCehiHzreSzNTczkc9d"?>
<x:xmpmeta xmlns:x="adobe:ns:meta/" x:xmptk="Adobe XMP Core 5.6-c142 79.160924, 2017/07/13-01:06:39        ">
   <rdf:RDF xmlns:rdf="http://www.w3.org/1999/02/22-rdf-syntax-ns#">
      <rdf:Description rdf:about=""/>
   </rdf:RDF>
</x:xmpmeta>
                                                                                                    
                                                                                                    
                                                                                                    
                                                                                                    
                                                                                                    
                                                                                                    
                                                                                                    
                                                                                                    
                                                                                                    
                                                                                                    
                                                                                                    
                                                                                                    
                                                                                                    
                                                                                                    
                                                                                                    
                                                                                                    
                                                                                                    
                                                                                                    
                                                                                                    
                                                                                                    
                           
<?xpacket end="w"?></metadata>
<defs>
    <style>
      .cls-1 {
        fill: #e74c3c;
        fill-rule: evenodd;
      }
    </style>
  </defs>
  <path id="Forma_1" data-name="Forma 1" class="cls-1" d="M1047.65,2708.2l-2.63-.01-2.51-3.8a0.818,0.818,0,0,0-.69-0.39h-6.77a0.826,0.826,0,0,0-.67.37l-2.6,3.82-2.43.01a3.387,3.387,0,0,0-3.35,3.4v10.98a3.411,3.411,0,0,0,3.35,3.42h18.3a3.411,3.411,0,0,0,3.35-3.42V2711.6A3.387,3.387,0,0,0,1047.65,2708.2Zm1.7,14.38a1.749,1.749,0,0,1-1.7,1.75h-18.3a1.749,1.749,0,0,1-1.7-1.75V2711.6a1.724,1.724,0,0,1,1.7-1.73h2.87a0.844,0.844,0,0,0,.68-0.37l2.59-3.82h5.89l2.5,3.79a0.874,0.874,0,0,0,.68.37l3.07,0.03a1.726,1.726,0,0,1,1.71,1.73v10.98h0.01Zm-10.78-12.37a5.91,5.91,0,1,0,5.84,5.91A5.875,5.875,0,0,0,1038.57,2710.21Zm0,10.15a4.24,4.24,0,1,1,4.19-4.24A4.219,4.219,0,0,1,1038.57,2720.36Zm7.81-8.03a0.322,0.322,0,0,1,.32.32,0.315,0.315,0,1,1-.63,0A0.32,0.32,0,0,1,1046.38,2712.33Zm0-.83a1.155,1.155,0,1,0,1.14,1.15A1.142,1.142,0,0,0,1046.38,2711.5Zm0,1.67a0.515,0.515,0,0,1,0-1.03A0.515,0.515,0,0,1,1046.38,2713.17Z" transform="translate(-1026 -2704)"/>
</svg>
