<svg id="Down_Icon" data-name="Down Icon" xmlns="http://www.w3.org/2000/svg" width="74" height="74" viewBox="0 0 74 74">
  <defs>
    <style>
      .cls-1 {
        fill: #f4f5f9;
        stroke: rgba(255,255,255,.25);
        stroke-width: 10px;
      }

      .cls-2 {
        fill: #e74c3c;
        fill-rule: evenodd;

      }
    </style>
  </defs>
  <circle class="cls-1" cx="37" cy="37" r="32"/>
  <path id="Forma_1" data-name="Forma 1" class="cls-2" d="M48.89,39.3l-2.509-3.774a0.635,0.635,0,0,0-1.062,0L42.81,39.3a0.667,0.667,0,0,0-.036.674,0.64,0.64,0,0,0,.567.348h1.238A6.853,6.853,0,0,1,39.5,44.931V30.466h1.995a1.018,1.018,0,0,0,0-2.036H40.463a3.729,3.729,0,0,0,1.176-2.718,3.64,3.64,0,1,0-7.279,0,3.728,3.728,0,0,0,1.176,2.718H34.509a1.018,1.018,0,0,0,0,2.036H36.5V44.931a6.853,6.853,0,0,1-5.084-4.612h1.238a0.64,0.64,0,0,0,.567-0.348,0.667,0.667,0,0,0-.036-0.674L30.68,35.522a0.635,0.635,0,0,0-1.062,0L27.11,39.3a0.667,0.667,0,0,0-.036.674,0.64,0.64,0,0,0,.567.348h1.35a11.076,11.076,0,0,0,6.779,8.238l-0.249.312a0.665,0.665,0,0,0-.038.774L37.464,52.7a0.634,0.634,0,0,0,1.071,0l1.981-3.062a0.664,0.664,0,0,0-.038-0.774l-0.249-.312a11.076,11.076,0,0,0,6.78-8.238h1.35a0.64,0.64,0,0,0,.567-0.348A0.667,0.667,0,0,0,48.89,39.3ZM38,24.034a1.679,1.679,0,1,1-1.645,1.678A1.664,1.664,0,0,1,38,24.034Z"/>
</svg>
