<svg data-name="Down Icon" xmlns="http://www.w3.org/2000/svg" width="74" height="74"><circle cx="37" cy="37" r="32" fill="#f4f5f9" stroke="rgba(255,255,255,.25)" stroke-width="10"/><path data-name="Forma 1" d="M48.89 39.3l-2.509-3.774a.635.635 0 0 0-1.062 0L42.81 39.3a.667.667 0 0 0-.036.674.64.64 0 0 0 .567.348h1.238a6.853 6.853 0 0 1-5.079 4.609V30.466h1.995a1.018 1.018 0 0 0 0-2.036h-1.032a3.729 3.729 0 0 0 1.176-2.718 3.64 3.64 0 1 0-7.279 0 3.728 3.728 0 0 0 1.176 2.718h-1.027a1.018 1.018 0 0 0 0 2.036H36.5v14.465a6.853 6.853 0 0 1-5.084-4.612h1.238a.64.64 0 0 0 .567-.348.667.667 0 0 0-.036-.674l-2.505-3.775a.635.635 0 0 0-1.062 0L27.11 39.3a.667.667 0 0 0-.036.674.64.64 0 0 0 .567.348h1.35a11.076 11.076 0 0 0 6.779 8.238l-.249.312a.665.665 0 0 0-.038.774l1.981 3.054a.634.634 0 0 0 1.071 0l1.981-3.062a.664.664 0 0 0-.038-.774l-.249-.312a11.076 11.076 0 0 0 6.78-8.238h1.35a.64.64 0 0 0 .567-.348.667.667 0 0 0-.036-.666zM38 24.034a1.679 1.679 0 1 1-1.645 1.678A1.664 1.664 0 0 1 38 24.034z" fill="#e74c3c" fill-rule="evenodd"/></svg>