<?xml version="1.0" encoding="iso-8859-1"?>
<!-- Generator: Adobe Illustrator 19.0.0, SVG Export Plug-In . SVG Version: 6.00 Build 0)  -->
<svg version="1.1" id="Capa_1" xmlns="http://www.w3.org/2000/svg" xmlns:xlink="http://www.w3.org/1999/xlink" x="0px" y="0px"
	 viewBox="0 0 390.4 390.4" style="enable-background:new 0 0 390.4 390.4;" xml:space="preserve">
<g>
	<g>
		<path d="M211.2,22c-4.8,0-8,3.2-8,8v168.8L92.8,325.2c-3.2,3.2-3.2,8.8,0.8,11.2c32.8,28.8,74.4,44,117.6,44
			c99.2,0,179.2-80.8,179.2-179.2S310.4,22,211.2,22z M211.2,364.4c-36.8,0-72-12.8-100.8-35.2l107.2-122.4c1.6-1.6,1.6-3.2,1.6-5.6
			V38c86.4,4,155.2,76,155.2,163.2C374.4,291.6,300.8,364.4,211.2,364.4z"/>
	</g>
</g>
<g>
	<g>
		<path d="M180,10C80,10,0,90.8,0,190c0,51.2,22.4,100.8,61.6,135.2c1.6,1.6,3.2,1.6,5.6,1.6c0,0,0,0,0.8,0c2.4,0,4-0.8,5.6-2.4
			l112.8-128.8c1.6-1.6,1.6-3.2,1.6-5.6V18C188,13.2,184.8,10,180,10z M171.2,186L65.6,307.6C33.6,276.4,15.2,234,15.2,190
			c0.8-88,69.6-159.2,156-164V186z"/>
	</g>
</g>
<g>
</g>
<g>
</g>
<g>
</g>
<g>
</g>
<g>
</g>
<g>
</g>
<g>
</g>
<g>
</g>
<g>
</g>
<g>
</g>
<g>
</g>
<g>
</g>
<g>
</g>
<g>
</g>
<g>
</g>
</svg>
