<?xml version="1.0" encoding="iso-8859-1"?>
<!-- Generator: Adobe Illustrator 19.0.0, SVG Export Plug-In . SVG Version: 6.00 Build 0)  -->
<svg version="1.1" id="Capa_1" xmlns="http://www.w3.org/2000/svg" xmlns:xlink="http://www.w3.org/1999/xlink" x="0px" y="0px"
	 viewBox="0 0 197.973 197.973" style="enable-background:new 0 0 197.973 197.973;" xml:space="preserve">
<g>
	<g>
		<path d="M163.84,0H34.133c-1.884,0-3.413,1.529-3.413,3.413v172.423c0,12.208,10.399,22.137,23.178,22.137h90.179
			c12.781,0,23.178-9.929,23.177-22.137V3.413C167.253,1.529,165.724,0,163.84,0z M160.43,175.836c0,8.443-7.335,15.31-16.352,15.31
			H53.9c-9.016,0-16.352-6.869-16.352-15.31V6.827H160.43V175.836z"/>
	</g>
</g>
<g>
	<g>
		<rect x="61.442" y="119.467" width="6.827" height="27.307"/>
	</g>
</g>
<g>
	<g>
		<rect x="51.202" y="129.707" width="27.307" height="6.827"/>
	</g>
</g>
<g>
	<g>
		<path d="M124.588,102.4c-6.588,0-11.947,5.361-11.947,11.947c0,6.586,5.359,11.947,11.947,11.947
			c6.588,0,11.947-5.361,11.947-11.947C136.535,107.761,131.176,102.4,124.588,102.4z M124.588,119.467
			c-2.823,0-5.12-2.297-5.12-5.12c0-2.823,2.297-5.12,5.12-5.12c2.823,0,5.12,2.297,5.12,5.12
			C129.708,117.17,127.411,119.467,124.588,119.467z"/>
	</g>
</g>
<g>
	<g>
		<path d="M107.522,122.88c-6.588,0-11.947,5.361-11.947,11.947c0,6.586,5.359,11.947,11.947,11.947
			c6.588,0,11.947-5.361,11.947-11.947C119.468,128.241,114.109,122.88,107.522,122.88z M107.522,139.947
			c-2.823,0-5.12-2.297-5.12-5.12c0-2.823,2.297-5.12,5.12-5.12c2.823,0,5.12,2.297,5.12,5.12
			C112.642,137.65,110.345,139.947,107.522,139.947z"/>
	</g>
</g>
<g>
	<g>
		<path d="M141.655,122.88c-6.588,0-11.947,5.361-11.947,11.947c0,6.586,5.359,11.947,11.947,11.947
			c6.588,0,11.947-5.361,11.947-11.947C153.602,128.241,148.243,122.88,141.655,122.88z M141.655,139.947
			c-2.823,0-5.12-2.297-5.12-5.12c0-2.823,2.297-5.12,5.12-5.12c2.823,0,5.12,2.297,5.12,5.12
			C146.775,137.65,144.478,139.947,141.655,139.947z"/>
	</g>
</g>
<g>
	<g>
		<path d="M124.588,143.36c-6.588,0-11.947,5.361-11.947,11.947s5.359,11.947,11.947,11.947c6.588,0,11.947-5.361,11.947-11.947
			S131.176,143.36,124.588,143.36z M124.588,160.427c-2.823,0-5.12-2.297-5.12-5.12s2.297-5.12,5.12-5.12
			c2.823,0,5.12,2.297,5.12,5.12S127.411,160.427,124.588,160.427z"/>
	</g>
</g>
<g>
	<g>
		<path d="M44.375,10.24v81.92h109.227V10.24H44.375z M146.775,85.333H51.202V17.067h95.573V85.333z"/>
	</g>
</g>
<g>
</g>
<g>
</g>
<g>
</g>
<g>
</g>
<g>
</g>
<g>
</g>
<g>
</g>
<g>
</g>
<g>
</g>
<g>
</g>
<g>
</g>
<g>
</g>
<g>
</g>
<g>
</g>
<g>
</g>
</svg>
