<svg xmlns="http://www.w3.org/2000/svg" width="27" height="22"><path data-name="Forma 1" d="M20.621 21.119h-5.192v-1.907a.445.445 0 0 0-.89 0v1.907h-2.077v-1.907a.445.445 0 0 0-.89 0v1.907H6.379a.44.44 0 1 0 0 .88h14.242a.44.44 0 1 0 0-.88zM25.962 0H1.038A1.034 1.034 0 0 0 0 1.026v15.84a1.033 1.033 0 0 0 1.039 1.026h19.73v.148a.445.445 0 0 0 .89 0v-.148h.89v.148a.445.445 0 0 0 .89 0v-.148h.89v.148a.445.445 0 0 0 .89 0v-.148h.742A1.033 1.033 0 0 0 27 16.866V1.026A1.034 1.034 0 0 0 25.962 0zm.148 16.866a.15.15 0 0 1-.148.146H1.038a.15.15 0 0 1-.148-.146V1.026a.15.15 0 0 1 .148-.147h24.924a.15.15 0 0 1 .148.148v15.84zM24.775 1.76H2.225a.44.44 0 1 0 0 .88h22.1v8.947a.445.445 0 0 0 .89 0V2.2a.442.442 0 0 0-.44-.44zm0 11.146a.442.442 0 0 0-.445.44v1.907H2.67V3.959a.445.445 0 0 0-.89 0v11.733a.443.443 0 0 0 .445.441h22.55a.443.443 0 0 0 .445-.441v-2.346a.442.442 0 0 0-.445-.44z" fill="#e74c3c" fill-rule="evenodd"/></svg>