<svg xmlns="http://www.w3.org/2000/svg" width="25" height="22"><path data-name="Forma 1" d="M21.65 4.2l-2.63-.01-2.51-3.8a.818.818 0 0 0-.69-.39H9.05a.826.826 0 0 0-.67.37l-2.6 3.82-2.43.01A3.387 3.387 0 0 0 0 7.6v10.98A3.411 3.411 0 0 0 3.35 22h18.3A3.411 3.411 0 0 0 25 18.58V7.6a3.387 3.387 0 0 0-3.35-3.4zm1.7 14.38a1.749 1.749 0 0 1-1.7 1.75H3.35a1.749 1.749 0 0 1-1.7-1.75V7.6a1.724 1.724 0 0 1 1.7-1.73h2.87a.844.844 0 0 0 .68-.37l2.59-3.82h5.89l2.5 3.79a.874.874 0 0 0 .68.37l3.07.03a1.726 1.726 0 0 1 1.71 1.73v10.98h.01zM12.57 6.21a5.91 5.91 0 1 0 5.84 5.91 5.875 5.875 0 0 0-5.84-5.91zm0 10.15a4.24 4.24 0 1 1 4.19-4.24 4.219 4.219 0 0 1-4.19 4.24zm7.81-8.03a.322.322 0 0 1 .32.32.315.315 0 1 1-.63 0 .32.32 0 0 1 .31-.32zm0-.83a1.155 1.155 0 1 0 1.14 1.15 1.142 1.142 0 0 0-1.14-1.15zm0 1.67a.515.515 0 0 1 0-1.03.515.515 0 0 1 0 1.03z" fill="#e74c3c" fill-rule="evenodd"/></svg>