<svg xmlns="http://www.w3.org/2000/svg" width="19.937" height="17.5"><path data-name="google plus" d="M9.788 10.2a3.381 3.381 0 0 1-1.482-1.7c0-.6.172-.9 1.081-1.7A3.366 3.366 0 0 0 10.874 4c0-1.4-.527-3.1-1.712-3.1h1.786l1.261-.9H6.576c-2.526 0-4.9 1.8-4.9 4a3.979 3.979 0 0 0 4.29 4h.523a2.262 2.262 0 0 0-.287 1 2.133 2.133 0 0 0 .767 1.6h-.977c-3.127 0-5.975 1.7-5.975 3.7 0 2.1 3.08 3.2 6.208 3.2 3.565 0 5.406-1.6 5.406-3.6a3.946 3.946 0 0 0-1.843-3.7zM6.78 7.4c-1.453-.1-2.831-1.6-3.081-3.6C3.448 1.9 4.421.5 5.871.5 7.322.6 8.702 2.1 8.953 4S8.23 7.4 6.78 7.4zm-.569 9.2c-2.161 0-3.723-.9-3.723-2.6 0-1.6 1.936-2.9 4.1-2.9a6.1 6.1 0 0 1 1.4.2c1.174.9 1.809 1.3 2.046 2.3a1.466 1.466 0 0 1 .069.5c0 1.7-.852 2.5-3.891 2.5zM17.455.8v2.6h2.482V5h-2.482v2.5h-1.658V5h-2.485V3.4h2.483V.8h1.658z" fill-rule="evenodd" fill="#999"/></svg>