<svg xmlns="http://www.w3.org/2000/svg" width="19.875" height="16.3"><path d="M19.886 2.1a11.686 11.686 0 0 1-2.277.6 4.36 4.36 0 0 0 1.71-2.2 8.012 8.012 0 0 1-2.56.9A4.141 4.141 0 0 0 13.793 0 4.079 4.079 0 0 0 9.87 4.2a5.068 5.068 0 0 0 .1 1A11.859 11.859 0 0 1 1.327.7a4.331 4.331 0 0 0 1.245 5.6A2.331 2.331 0 0 1 .78 5.9a3.973 3.973 0 0 0 3.166 4 3.378 3.378 0 0 1-1.709.1 3.9 3.9 0 0 0 3.669 2.8 6.971 6.971 0 0 1-5.919 1.7 11.868 11.868 0 0 0 6.421 1.8 11.6 11.6 0 0 0 11.772-12v-.1a7.276 7.276 0 0 0 1.706-2.1z" fill="#999" fill-rule="evenodd"/></svg>