<svg xmlns="http://www.w3.org/2000/svg" width="20.219" height="18.6" viewBox="0 0 20.219 18.6">
  <metadata><?xpacket begin="﻿" id="W5M0MpCehiHzreSzNTczkc9d"?>
<x:xmpmeta xmlns:x="adobe:ns:meta/" x:xmptk="Adobe XMP Core 5.6-c142 79.160924, 2017/07/13-01:06:39        ">
   <rdf:RDF xmlns:rdf="http://www.w3.org/1999/02/22-rdf-syntax-ns#">
      <rdf:Description rdf:about=""/>
   </rdf:RDF>
</x:xmpmeta>





















<?xpacket end="w"?></metadata>
<defs>
    <style>
      .cls-1 {
        fill-rule: evenodd;
        fill: #94413e;
      }
    </style>
  </defs>
  <path id="linkedin" class="cls-1" d="M526.715,11281.2h4.14v-12.5h-4.14v12.5Zm14.747-12.9a4.493,4.493,0,0,0-4.017,2.1v-1.7H533.33v12.5h4.141v-6.8c0-1.4.722-2.8,2.357-2.8a2.692,2.692,0,0,1,2.631,2.8v6.8H546.6v-7.1C546.6,11269.2,543.271,11268.3,541.462,11268.3Zm-12.659-5.7a2.211,2.211,0,1,0,2.434,2.2A2.337,2.337,0,0,0,528.8,11262.6Z" transform="translate(-526.375 -11262.6)"/>
</svg>
