<svg xmlns="http://www.w3.org/2000/svg" width="19.875" height="20" viewBox="0 0 19.875 20">
  <metadata><?xpacket begin="﻿" id="W5M0MpCehiHzreSzNTczkc9d"?>
<x:xmpmeta xmlns:x="adobe:ns:meta/" x:xmptk="Adobe XMP Core 5.6-c142 79.160924, 2017/07/13-01:06:39        ">
   <rdf:RDF xmlns:rdf="http://www.w3.org/1999/02/22-rdf-syntax-ns#">
      <rdf:Description rdf:about=""/>
   </rdf:RDF>
</x:xmpmeta>





















<?xpacket end="w"?></metadata>
<defs>
    <style>
      .cls-1 {
        fill-rule: evenodd;
        fill: #94413e;
      }
    </style>
  </defs>
  <path id="rss" class="cls-1" d="M453.338,11276.2a2.9,2.9,0,1,0,2.9,2.9A2.9,2.9,0,0,0,453.338,11276.2Zm-2.747-7.5h-0.153v3.7h0.153a9.5,9.5,0,0,1,9.384,9.4s-0.01.1-.012,0.2h3.7c0-.1.013-0.2,0.013-0.2A13.169,13.169,0,0,0,450.591,11268.7Zm0-6.7h-0.153v3.7h0.153a16.189,16.189,0,0,1,16.067,16.1s0,0.1-.006.2H470.3c0-.1.006-0.2,0.006-0.2A19.874,19.874,0,0,0,450.591,11262Z" transform="translate(-450.438 -11262)"/>
</svg>
