<svg xmlns="http://www.w3.org/2000/svg" width="19.906" height="20" viewBox="0 0 19.906 20">
  <metadata><?xpacket begin="﻿" id="W5M0MpCehiHzreSzNTczkc9d"?>
<x:xmpmeta xmlns:x="adobe:ns:meta/" x:xmptk="Adobe XMP Core 5.6-c142 79.160924, 2017/07/13-01:06:39        ">
   <rdf:RDF xmlns:rdf="http://www.w3.org/1999/02/22-rdf-syntax-ns#">
      <rdf:Description rdf:about=""/>
   </rdf:RDF>
</x:xmpmeta>





















<?xpacket end="w"?></metadata>
<defs>
    <style>
      .cls-1 {
        fill-rule: evenodd;
        fill: #999999;
      }
    </style>
  </defs>
  <path id="skype" class="cls-1" d="M584.939,11273.3a7.742,7.742,0,0,0,.11-1.3,8.725,8.725,0,0,0-8.869-8.7,6.061,6.061,0,0,0-1.343.2,4.84,4.84,0,0,0-8.341,3.6,4.912,4.912,0,0,0,1.019,3,9.369,9.369,0,0,0-.2,1.9,9.156,9.156,0,0,0,8.869,9.2,11.012,11.012,0,0,0,1.836-.2,5.267,5.267,0,0,0,3.318,1,5.089,5.089,0,0,0,5.057-5.1A5.3,5.3,0,0,0,584.939,11273.3Zm-4.62,2.8a3.6,3.6,0,0,1-1.534,1.2,5.866,5.866,0,0,1-2.393.4,5.59,5.59,0,0,1-2.739-.6,3.38,3.38,0,0,1-1.242-1.1,2.436,2.436,0,0,1-.478-1.3,0.925,0.925,0,0,1,.287-0.7,0.965,0.965,0,0,1,.73-0.3,1.176,1.176,0,0,1,.608.2,2.371,2.371,0,0,1,.424.7,4.067,4.067,0,0,0,.463.8,1.578,1.578,0,0,0,.7.5,2.113,2.113,0,0,0,1.186.3,2.778,2.778,0,0,0,1.641-.5,1.242,1.242,0,0,0,.631-1.1,1.066,1.066,0,0,0-.34-0.8,2.268,2.268,0,0,0-.88-0.5,14.466,14.466,0,0,0-1.442-.3,8.424,8.424,0,0,1-2.022-.7,2.878,2.878,0,0,1-1.293-.9,2.33,2.33,0,0,1-.478-1.5,2.248,2.248,0,0,1,.5-1.5,2.575,2.575,0,0,1,1.461-1,5.241,5.241,0,0,1,2.248-.4,8.941,8.941,0,0,1,1.786.2,4.021,4.021,0,0,1,1.249.7,1.979,1.979,0,0,1,.727.8,1.927,1.927,0,0,1,.23.8,0.929,0.929,0,0,1-.287.7,0.947,0.947,0,0,1-.715.3,0.985,0.985,0,0,1-.593-0.2,1.8,1.8,0,0,1-.439-0.6,2.394,2.394,0,0,0-.735-0.9,2.45,2.45,0,0,0-1.377-.3,2.912,2.912,0,0,0-1.418.3,1.23,1.23,0,0,0-.539.9,0.66,0.66,0,0,0,.184.5,1.037,1.037,0,0,0,.5.4c0.213,0.1.43,0.2,0.649,0.3a8.418,8.418,0,0,1,1.087.2c0.631,0.2,1.2.3,1.716,0.5a10.848,10.848,0,0,1,1.308.6,2.053,2.053,0,0,1,.841.9,2.757,2.757,0,0,1,.3,1.3A2.981,2.981,0,0,1,580.319,11276.1Z" transform="translate(-566.5 -11262)"/>
</svg>
