<svg xmlns="http://www.w3.org/2000/svg" width="19.875" height="16.3" viewBox="0 0 19.875 16.3">
  <metadata><?xpacket begin="﻿" id="W5M0MpCehiHzreSzNTczkc9d"?>
<x:xmpmeta xmlns:x="adobe:ns:meta/" x:xmptk="Adobe XMP Core 5.6-c142 79.160924, 2017/07/13-01:06:39        ">
   <rdf:RDF xmlns:rdf="http://www.w3.org/1999/02/22-rdf-syntax-ns#">
      <rdf:Description rdf:about=""/>
   </rdf:RDF>
</x:xmpmeta>





















<?xpacket end="w"?></metadata>
<defs>
    <style>
      .cls-1 {
        fill: #999999;
        fill-rule: evenodd;
      }
    </style>
  </defs>
  <path id="twitter" class="cls-1" d="M430.542,11266.1a11.686,11.686,0,0,1-2.277.6,4.36,4.36,0,0,0,1.71-2.2,8.012,8.012,0,0,1-2.56.9h0a4.141,4.141,0,0,0-2.966-1.4,4.079,4.079,0,0,0-3.923,4.2,5.068,5.068,0,0,0,.1,1h0a11.859,11.859,0,0,1-8.643-4.5,4.331,4.331,0,0,0,1.245,5.6,2.331,2.331,0,0,1-1.792-.4,3.973,3.973,0,0,0,3.166,4,3.378,3.378,0,0,1-1.709.1,3.9,3.9,0,0,0,3.669,2.8,6.971,6.971,0,0,1-5.919,1.7,11.868,11.868,0,0,0,6.421,1.8,11.6,11.6,0,0,0,11.772-12h0s0-.1,0-0.1h0A7.276,7.276,0,0,0,430.542,11266.1Z" transform="translate(-410.656 -11264)"/>
</svg>
