<svg xmlns="http://www.w3.org/2000/svg" width="19.907" height="17.5" viewBox="0 0 19.907 17.5">
  <metadata><?xpacket begin="﻿" id="W5M0MpCehiHzreSzNTczkc9d"?>
<x:xmpmeta xmlns:x="adobe:ns:meta/" x:xmptk="Adobe XMP Core 5.6-c142 79.160924, 2017/07/13-01:06:39        ">
   <rdf:RDF xmlns:rdf="http://www.w3.org/1999/02/22-rdf-syntax-ns#">
      <rdf:Description rdf:about=""/>
   </rdf:RDF>
</x:xmpmeta>





















<?xpacket end="w"?></metadata>
<defs>
    <style>
      .cls-1 {
        fill-rule: evenodd;
        fill: #999999;
      }
    </style>
  </defs>
  <path id="vimeo" class="cls-1" d="M606.287,11268.5c1.75-1.4,4.241-4,6.182-4s2.415,1.8,2.682,3.9c0.267,2,1.027,6.5,2.054,6.5s3.367-4,3.234-5.5-1.826-1.3-2.758-.8c0.855-3.1,2.835-4.9,5.363-4.9s3.138,1.9,3.138,4.1c0,3.3-6.771,13.4-10.859,13.4-2.531,0-3.159-3.7-3.671-5.5s-1.521-6.6-2.7-6.9a4.316,4.316,0,0,0-1.75.9Z" transform="translate(-606.281 -11263.7)"/>
</svg>
